<svg xmlns="http://www.w3.org/2000/svg" viewBox="0 0 1342 330"  fill="none"><path fill="#EAF4FD" stroke="#EAF4FD" d="M413.865 1.941s573.786-1.017 587.645 0c13.86 1.017 34.79 13.698 35.21 32.514.44 19.223-8.48 29.321-35.21 34.043-26.733 4.722-239.298 0-239.298 0s-27.033 7.52-25.748 34.043c1.285 26.523 25.748 30.218 25.748 30.218s179.704 6.754 374.328 6.754c194.62 0 204.46 18.743 204.46 43.223s-92.77 16.448-200.3 16.962c-107.53.515-533.73 3.443-533.73 3.443s-33.699-3.825-33.699 27.54c0 31.366 33.699 31.366 33.699 31.366h429.75s50.24 4.481 51.88 27.541c1.7 24.022-51.88 32.513-51.88 32.513l-622.855 6.885H161.313s-34.984-5.868-32.184-29.071c2.8-23.202 32.184-20.655 32.184-20.655h185.154s-65.275 0-59.595-29.071c-3.408-28.688 50.508-28.688 50.508-28.688h84.436s-39.121-.615-41.65-18.36c-2.494-17.498 33.699-29.836 33.699-29.836L45.679 178.66S1 178.66 1 149.59c0-37.869 51.644-37.869 51.644-37.869l415.744-9.18s-54.253-.298-54.523-23.715c-.272-23.538 54.523-24.481 54.523-24.481H113.605s-45.437.765-45.437-27.54c0-28.306 45.437-24.864 45.437-24.864h300.26z"/></svg>