<svg viewBox="0 0 210 211" fill="none" xmlns="http://www.w3.org/2000/svg"><mask id="prefix__a" style="mask-type:alpha" maskUnits="userSpaceOnUse" x="0" y="0" width="210" height="211"><path fill="#D9D9D9" d="M0 .232h210v210H0z"/></mask><g mask="url(#prefix__a)"><path d="M76.98 193.944c-7.054 0-13.282-2.098-18.683-6.293-5.401-4.196-9.1-9.648-11.097-16.356-2.2 4.24-5.088 7.443-8.666 9.608-3.579 2.165-7.696 3.248-12.351 3.248-6.787 0-12.46-2.316-17.02-6.948-4.56-4.631-6.84-10.286-6.84-16.963 0-7.202 2.375-13.021 7.125-17.458 4.751-4.437 10.722-6.425 17.913-5.965-2.906-2.918-5.163-6.38-6.773-10.386-1.61-4.006-2.415-8.094-2.415-12.263 0-5.559 1.391-10.715 4.173-15.469 2.782-4.753 6.91-8.577 12.385-11.47.62 1.833 1.494 3.81 2.623 5.93a135.523 135.523 0 003.165 5.646c-3.175 1.862-5.55 4.224-7.126 7.085-1.576 2.862-2.364 5.823-2.364 8.884 0 8.772 3.457 14.269 10.373 16.49 6.916 2.221 13.706 4.016 20.37 5.385l2.389 4.324a1125.381 1125.381 0 01-3.879 11.451c-1.183 3.427-1.775 6.672-1.775 9.734 0 5.037 1.81 9.451 5.432 13.243 3.621 3.792 7.997 5.687 13.128 5.687 5.776 0 10.545-2.292 14.305-6.878s6.849-10.055 9.264-16.407a125.428 125.428 0 005.677-19.615 2251.446 2251.446 0 003.23-16.112l12.502 3.4c-1.346 6.08-2.902 13.094-4.669 21.042-1.767 7.947-4.257 15.435-7.471 22.463-3.214 7.028-7.451 12.946-12.71 17.753-5.26 4.807-11.999 7.21-20.215 7.21zm-50.772-22.565c3.216 0 5.872-1.064 7.97-3.194 2.096-2.13 3.145-4.733 3.145-7.81 0-3.084-1.065-5.725-3.195-7.925-2.13-2.199-4.733-3.299-7.81-3.299-3.233 0-5.912 1.1-8.037 3.3-2.125 2.201-3.187 4.843-3.187 7.928 0 3.14 1.062 5.758 3.187 7.855 2.125 2.097 4.767 3.145 7.927 3.145zm58.6-43.009a7602.992 7602.992 0 01-12.856-11.67 140.245 140.245 0 01-12.582-12.998c-3.856-4.544-7.011-9.356-9.465-14.438-2.455-5.081-3.682-10.427-3.682-16.036 0-8.867 3-16.323 8.999-22.367 5.999-6.044 13.404-9.066 22.215-9.066 1.427 0 2.86.065 4.3.194 1.44.13 2.716.396 3.828.8-1.638-2.346-2.77-4.535-3.4-6.57a20.741 20.741 0 01-.942-6.152c0-6.694 2.27-12.367 6.81-17.018 4.54-4.651 10.192-6.977 16.957-6.977 6.764 0 12.456 2.326 17.076 6.977 4.619 4.651 6.929 10.324 6.929 17.018a19.21 19.21 0 01-.984 6.121c-.657 1.966-1.776 4.166-3.357 6.6.987-.258 2.19-.488 3.609-.69a30.466 30.466 0 014.299-.303c7.906 0 14.678 2.482 20.316 7.446 5.639 4.964 8.974 11.215 10.006 18.754-1.945-.236-4.095-.331-6.448-.286-2.353.045-4.444.185-6.273.42-1.122-4.004-3.233-7.266-6.335-9.785-3.102-2.518-6.845-3.777-11.229-3.777-5.476 0-9.984 1.744-13.524 5.233-3.539 3.489-7.451 7.74-11.736 12.755h-4.897c-4.229-5.104-8.113-9.378-11.652-12.822-3.54-3.444-7.99-5.166-13.353-5.166-5.476 0-9.918 1.741-13.328 5.224-3.41 3.482-5.114 7.961-5.114 13.437 0 3.754 1.161 7.668 3.483 11.742 2.322 4.074 5.246 8.14 8.771 12.194 3.526 4.056 7.3 7.979 11.325 11.771a427.528 427.528 0 0011.337 10.332l-9.104 9.103zM105 41.072c3.139 0 5.795-1.065 7.966-3.194 2.172-2.13 3.257-4.733 3.257-7.81 0-3.14-1.086-5.796-3.258-7.967-2.172-2.172-4.829-3.258-7.969-3.258-3.141 0-5.76 1.087-7.856 3.259-2.097 2.172-3.145 4.829-3.145 7.97 0 3.14 1.065 5.758 3.194 7.855 2.13 2.097 4.733 3.145 7.811 3.145zm27.663 153.091c-2.938 0-5.843-.425-8.715-1.276-2.871-.85-5.654-2.253-8.347-4.21a235.74 235.74 0 003.37-5.534c1.275-2.15 2.272-4.164 2.99-6.042 1.63 1.486 3.403 2.572 5.32 3.259a17.12 17.12 0 005.82 1.031c5.059 0 9.397-1.929 13.015-5.789 3.618-3.859 5.427-8.34 5.427-13.444 0-3.135-.628-6.407-1.885-9.814-1.256-3.408-2.512-7.17-3.769-11.287l2.474-4.24c6.719-1.133 13.559-2.85 20.52-5.15 6.961-2.301 10.441-7.898 10.441-16.791 0-6.519-2.377-11.326-7.133-14.422-4.755-3.096-9.972-4.645-15.65-4.645-7.17 0-15.056 1.302-23.66 3.904a1388.116 1388.116 0 00-23.254 7.236l-3.399-12.284a1694.089 1694.089 0 0124.714-7.807c8.635-2.659 16.926-3.988 24.875-3.988 9.35 0 17.734 2.756 25.152 8.27 7.418 5.514 11.127 13.408 11.127 23.684 0 4.082-.814 8.039-2.44 11.87-1.627 3.832-3.921 7.251-6.882 10.257 7.1-.403 13.085 1.658 17.954 6.184 4.868 4.527 7.303 10.273 7.303 17.239 0 6.668-2.3 12.335-6.901 16.999-4.6 4.664-10.253 6.997-16.96 6.997-4.566 0-8.719-1.119-12.46-3.357-3.741-2.238-6.594-5.506-8.557-9.802-2.142 6.854-5.944 12.393-11.405 16.616-5.461 4.224-11.823 6.336-19.085 6.336zm51.642-22.565c3.108 0 5.71-1.079 7.808-3.236 2.097-2.158 3.146-4.747 3.146-7.769 0-3.074-1.085-5.749-3.254-8.026-2.17-2.278-4.827-3.416-7.97-3.416s-5.762 1.085-7.859 3.254c-2.097 2.17-3.145 4.826-3.145 7.969 0 3.074 1.102 5.713 3.306 7.918 2.204 2.204 4.86 3.306 7.968 3.306z" fill="currentColor"/></g></svg>