<svg width="397" height="262" viewBox="0 0 397 262" fill="none" xmlns="http://www.w3.org/2000/svg">
<mask id="path-1-outside-1_1007_1187" maskUnits="userSpaceOnUse" x="-0.375" y="39.999" width="114" height="173" fill="black">
<rect fill="white" x="-0.375" y="39.999" width="114" height="173"/>
<path fill-rule="evenodd" clip-rule="evenodd" d="M17.2295 154.521V203.517C17.2295 205.996 16.4388 208.037 14.8574 209.641C13.4198 211.099 11.479 211.828 9.03506 211.828C6.44735 211.828 4.36281 211.099 2.78143 209.641C1.34381 208.037 0.625 205.996 0.625 203.517V154.521V100.713V49.5296C0.625 46.9048 1.34381 44.8633 2.78143 43.4051C4.36281 41.801 6.44735 40.999 9.03506 40.999C11.479 40.999 13.4198 41.801 14.8574 43.4051C16.4388 44.8633 17.2295 46.9048 17.2295 49.5296V100.713V108.168C21.0877 103.727 25.6881 100.076 31.0306 97.213C38.65 92.9842 47.1319 90.8698 56.4765 90.8698C66.6835 90.8698 75.8124 93.0572 83.8631 97.4318C88.4228 99.8269 92.4291 102.877 95.882 106.582V99.9262C95.882 97.2829 96.5089 95.2269 97.7627 93.7584C99.1418 92.143 100.96 91.3353 103.217 91.3353C105.348 91.3353 107.041 92.143 108.295 93.7584C109.674 95.2269 110.363 97.2829 110.363 99.9262V203.238C110.363 205.881 109.674 208.01 108.295 209.626C107.041 211.094 105.348 211.828 103.217 211.828C102.966 211.828 102.721 211.819 102.482 211.801C102.246 211.819 102.006 211.828 101.761 211.828C99.3175 211.828 97.3048 211.026 95.7234 209.422C94.142 207.818 93.3514 205.85 93.3514 203.517V146.646C93.3514 137.605 91.6262 130.169 88.1759 124.336C84.8694 118.503 80.269 114.128 74.3748 111.212C68.6243 108.295 62.0832 106.837 54.7513 106.837C47.707 106.837 41.3096 108.223 35.5591 110.993C29.9524 113.764 25.4958 117.555 22.1893 122.367C18.8827 127.179 17.2295 132.648 17.2295 138.772V154.521ZM95.882 64.9017C97.8881 67.2513 100.27 68.4262 103.029 68.4262C105.912 68.4262 108.357 67.2513 110.363 64.9017C112.369 62.552 113.372 59.6884 113.372 56.3108C113.372 52.6394 112.307 49.7758 110.175 47.7198C108.169 45.517 105.85 44.4156 103.217 44.4156C100.458 44.4156 98.0134 45.517 95.882 47.7198C93.8759 49.7758 92.8729 52.6394 92.8729 56.3108C92.8729 59.6884 93.8759 62.552 95.882 64.9017Z"/>
</mask>
<path fill-rule="evenodd" clip-rule="evenodd" d="M17.2295 154.521V203.517C17.2295 205.996 16.4388 208.037 14.8574 209.641C13.4198 211.099 11.479 211.828 9.03506 211.828C6.44735 211.828 4.36281 211.099 2.78143 209.641C1.34381 208.037 0.625 205.996 0.625 203.517V154.521V100.713V49.5296C0.625 46.9048 1.34381 44.8633 2.78143 43.4051C4.36281 41.801 6.44735 40.999 9.03506 40.999C11.479 40.999 13.4198 41.801 14.8574 43.4051C16.4388 44.8633 17.2295 46.9048 17.2295 49.5296V100.713V108.168C21.0877 103.727 25.6881 100.076 31.0306 97.213C38.65 92.9842 47.1319 90.8698 56.4765 90.8698C66.6835 90.8698 75.8124 93.0572 83.8631 97.4318C88.4228 99.8269 92.4291 102.877 95.882 106.582V99.9262C95.882 97.2829 96.5089 95.2269 97.7627 93.7584C99.1418 92.143 100.96 91.3353 103.217 91.3353C105.348 91.3353 107.041 92.143 108.295 93.7584C109.674 95.2269 110.363 97.2829 110.363 99.9262V203.238C110.363 205.881 109.674 208.01 108.295 209.626C107.041 211.094 105.348 211.828 103.217 211.828C102.966 211.828 102.721 211.819 102.482 211.801C102.246 211.819 102.006 211.828 101.761 211.828C99.3175 211.828 97.3048 211.026 95.7234 209.422C94.142 207.818 93.3514 205.85 93.3514 203.517V146.646C93.3514 137.605 91.6262 130.169 88.1759 124.336C84.8694 118.503 80.269 114.128 74.3748 111.212C68.6243 108.295 62.0832 106.837 54.7513 106.837C47.707 106.837 41.3096 108.223 35.5591 110.993C29.9524 113.764 25.4958 117.555 22.1893 122.367C18.8827 127.179 17.2295 132.648 17.2295 138.772V154.521ZM95.882 64.9017C97.8881 67.2513 100.27 68.4262 103.029 68.4262C105.912 68.4262 108.357 67.2513 110.363 64.9017C112.369 62.552 113.372 59.6884 113.372 56.3108C113.372 52.6394 112.307 49.7758 110.175 47.7198C108.169 45.517 105.85 44.4156 103.217 44.4156C100.458 44.4156 98.0134 45.517 95.882 47.7198C93.8759 49.7758 92.8729 52.6394 92.8729 56.3108C92.8729 59.6884 93.8759 62.552 95.882 64.9017Z" fill="url(#paint0_linear_1007_1187)"/>
<path d="M14.8574 209.641L14.9998 209.782L14.8574 209.641ZM2.78143 209.641L2.63249 209.775L2.63885 209.782L2.64585 209.788L2.78143 209.641ZM2.78143 43.4051L2.639 43.2647L2.639 43.2647L2.78143 43.4051ZM14.8574 43.4051L14.7085 43.5386L14.7148 43.5456L14.7218 43.5521L14.8574 43.4051ZM17.2295 108.168H17.0295V108.703L17.3805 108.299L17.2295 108.168ZM31.0306 97.213L31.1251 97.3894L31.1277 97.3879L31.0306 97.213ZM83.8631 97.4318L83.7676 97.6075L83.7701 97.6088L83.8631 97.4318ZM95.882 106.582L95.7357 106.718L96.082 107.09V106.582H95.882ZM97.7627 93.7584L97.9148 93.8882L97.7627 93.7584ZM108.295 93.7584L108.137 93.881L108.142 93.8884L108.149 93.8953L108.295 93.7584ZM108.295 209.626L108.142 209.496L108.295 209.626ZM102.482 211.801L102.497 211.602L102.481 211.601L102.466 211.602L102.482 211.801ZM95.7234 209.422L95.581 209.563L95.7234 209.422ZM88.1759 124.336L88.0019 124.434L88.0038 124.438L88.1759 124.336ZM74.3748 111.212L74.2843 111.39L74.2861 111.391L74.3748 111.212ZM35.5591 110.993L35.4723 110.813L35.4705 110.814L35.5591 110.993ZM22.1893 122.367L22.0244 122.254L22.1893 122.367ZM95.882 64.9017L95.7299 65.0315L95.882 64.9017ZM110.363 64.9017L110.515 65.0315L110.363 64.9017ZM110.175 47.7198L110.027 47.8548L110.036 47.8638L110.175 47.7198ZM95.882 47.7198L96.0251 47.8595L96.0257 47.8589L95.882 47.7198ZM17.0295 154.521V203.517H17.4295V154.521H17.0295ZM17.0295 203.517C17.0295 205.949 16.2556 207.938 14.715 209.501L14.9998 209.782C16.622 208.136 17.4295 206.042 17.4295 203.517H17.0295ZM14.715 209.501C13.3221 210.914 11.4366 211.628 9.03506 211.628V212.028C11.5214 212.028 13.5175 211.285 14.9998 209.782L14.715 209.501ZM9.03506 211.628C6.48682 211.628 4.45423 210.912 2.91701 209.494L2.64585 209.788C4.27139 211.287 6.40788 212.028 9.03506 212.028V211.628ZM2.93036 209.508C1.53056 207.946 0.825 205.954 0.825 203.517H0.425C0.425 206.037 1.15706 208.128 2.63249 209.775L2.93036 209.508ZM0.825 203.517V154.521H0.425V203.517H0.825ZM0.825 154.521V100.713H0.425V154.521H0.825ZM0.825 100.713V49.5296H0.425V100.713H0.825ZM0.825 49.5296C0.825 46.9418 1.53273 44.9565 2.92385 43.5455L2.639 43.2647C1.15489 44.77 0.425 46.8677 0.425 49.5296H0.825ZM2.92385 43.5455C4.46197 41.9853 6.49223 41.199 9.03506 41.199V40.799C6.40248 40.799 4.26364 41.6167 2.639 43.2647L2.92385 43.5455ZM9.03506 41.199C11.4307 41.199 13.3141 41.9828 14.7085 43.5386L15.0064 43.2716C13.5255 41.6193 11.5274 40.799 9.03506 40.799V41.199ZM14.7218 43.5521C16.2533 44.9643 17.0295 46.9474 17.0295 49.5296H17.4295C17.4295 46.8622 16.6243 44.7623 14.993 43.258L14.7218 43.5521ZM17.0295 49.5296V100.713H17.4295V49.5296H17.0295ZM17.0295 100.713V108.168H17.4295V100.713H17.0295ZM17.3805 108.299C21.2223 103.878 25.8033 100.241 31.1251 97.3893L30.9362 97.0368C25.5729 99.9108 20.9532 103.577 17.0785 108.036L17.3805 108.299ZM31.1277 97.3879C38.7152 93.1768 47.1634 91.0698 56.4765 91.0698V90.6698C47.1005 90.6698 38.5848 92.7917 30.9336 97.0382L31.1277 97.3879ZM56.4765 91.0698C66.6541 91.0698 75.7495 93.2506 83.7676 97.6075L83.9586 97.2561C75.8754 92.8637 66.713 90.6698 56.4765 90.6698V91.0698ZM83.7701 97.6088C88.3102 99.9936 92.2984 103.03 95.7357 106.718L96.0283 106.445C92.5598 102.724 88.5354 99.6601 83.9561 97.2547L83.7701 97.6088ZM96.082 106.582V99.9262H95.682V106.582H96.082ZM96.082 99.9262C96.082 97.3129 96.7017 95.3091 97.9148 93.8882L97.6106 93.6285C96.3161 95.1447 95.682 97.2528 95.682 99.9262H96.082ZM97.9148 93.8882C99.2533 92.3204 101.014 91.5353 103.217 91.5353V91.1353C100.905 91.1353 99.0304 91.9655 97.6106 93.6285L97.9148 93.8882ZM103.217 91.5353C105.289 91.5353 106.922 92.3168 108.137 93.881L108.453 93.6357C107.159 91.9692 105.407 91.1353 103.217 91.1353V91.5353ZM108.149 93.8953C109.483 95.3163 110.163 97.3174 110.163 99.9262H110.563C110.563 97.2483 109.864 95.1375 108.44 93.6215L108.149 93.8953ZM110.163 99.9262V203.238H110.563V99.9262H110.163ZM110.163 203.238C110.163 205.845 109.484 207.925 108.142 209.496L108.447 209.756C109.864 208.096 110.563 205.917 110.563 203.238H110.163ZM108.142 209.496C106.931 210.915 105.296 211.628 103.217 211.628V212.028C105.4 212.028 107.151 211.274 108.447 209.756L108.142 209.496ZM103.217 211.628C102.971 211.628 102.731 211.62 102.497 211.602L102.467 212.001C102.711 212.019 102.961 212.028 103.217 212.028V211.628ZM102.466 211.602C102.236 211.62 102.001 211.628 101.761 211.628V212.028C102.01 212.028 102.256 212.019 102.497 212.001L102.466 211.602ZM101.761 211.628C99.366 211.628 97.4062 210.844 95.8658 209.282L95.581 209.563C97.2034 211.208 99.269 212.028 101.761 212.028V211.628ZM95.8658 209.282C94.3228 207.717 93.5514 205.799 93.5514 203.517H93.1514C93.1514 205.9 93.9613 207.92 95.581 209.563L95.8658 209.282ZM93.5514 203.517V146.646H93.1514V203.517H93.5514ZM93.5514 146.646C93.5514 137.581 91.8217 130.106 88.3481 124.234L88.0038 124.438C91.4307 130.231 93.1514 137.63 93.1514 146.646H93.5514ZM88.3499 124.237C85.0241 118.37 80.3943 113.967 74.4635 111.033L74.2861 111.391C80.1437 114.289 84.7147 118.636 88.0019 124.434L88.3499 124.237ZM74.4653 111.034C68.6831 108.101 62.1103 106.637 54.7513 106.637V107.037C62.0561 107.037 68.5655 108.49 74.2843 111.39L74.4653 111.034ZM54.7513 106.637C47.6801 106.637 41.2526 108.028 35.4723 110.813L35.6459 111.173C41.3666 108.417 47.7339 107.037 54.7513 107.037V106.637ZM35.4705 110.814C29.8354 113.598 25.3517 117.412 22.0244 122.254L22.3541 122.48C25.6399 117.699 30.0694 113.929 35.6477 111.172L35.4705 110.814ZM22.0244 122.254C18.6938 127.101 17.0295 132.609 17.0295 138.772H17.4295C17.4295 132.686 19.0716 127.258 22.3541 122.48L22.0244 122.254ZM17.0295 138.772V154.521H17.4295V138.772H17.0295ZM103.029 68.2262C100.336 68.2262 98.0073 67.083 96.0341 64.7718L95.7299 65.0315C97.7688 67.4197 100.204 68.6262 103.029 68.6262V68.2262ZM110.211 64.7718C108.24 67.0806 105.849 68.2262 103.029 68.2262V68.6262C105.975 68.6262 108.474 67.4221 110.515 65.0315L110.211 64.7718ZM113.172 56.3108C113.172 59.6456 112.183 62.4619 110.211 64.7718L110.515 65.0315C112.555 62.6422 113.572 59.7312 113.572 56.3108H113.172ZM110.036 47.8638C112.12 49.8734 113.172 52.6799 113.172 56.3108H113.572C113.572 52.599 112.494 49.6782 110.314 47.5759L110.036 47.8638ZM103.217 44.6156C105.786 44.6156 108.054 45.6873 110.027 47.8545L110.323 47.5852C108.285 45.3468 105.914 44.2156 103.217 44.2156V44.6156ZM96.0257 47.8589C98.1241 45.6903 100.519 44.6156 103.217 44.6156V44.2156C100.398 44.2156 97.9028 45.3438 95.7383 47.5808L96.0257 47.8589ZM93.0729 56.3108C93.0729 52.6765 94.0649 49.8685 96.0251 47.8595L95.7388 47.5802C93.687 49.6831 92.6729 52.6024 92.6729 56.3108H93.0729ZM96.0341 64.7718C94.0619 62.4619 93.0729 59.6456 93.0729 56.3108H92.6729C92.6729 59.7312 93.6899 62.6422 95.7299 65.0315L96.0341 64.7718Z" fill="#4DA9E9" mask="url(#path-1-outside-1_1007_1187)"/>
<path d="M180.994 171.868C169.477 171.868 159.127 169.244 149.944 163.996C140.76 158.603 133.471 151.314 128.077 142.13C122.83 132.946 120.206 122.523 120.206 110.861C120.206 99.3453 122.757 88.9953 127.859 79.8115C133.107 70.6277 140.177 63.4119 149.069 58.164C157.961 52.7703 168.02 50.0735 179.244 50.0735C189.011 50.0735 197.83 52.1872 205.702 56.4147C213.574 60.4964 219.915 65.9629 224.726 72.8143V8.5278C224.726 5.90386 225.528 3.86302 227.131 2.40527C228.735 0.801758 230.775 0 233.254 0C235.732 0 237.773 0.801758 239.376 2.40527C240.98 3.86302 241.781 5.90386 241.781 8.5278V111.736C241.49 123.107 238.647 133.384 233.254 142.567C228.006 151.605 220.79 158.748 211.606 163.996C202.568 169.244 192.364 171.868 180.994 171.868ZM180.994 156.562C189.448 156.562 196.956 154.594 203.516 150.658C210.221 146.576 215.469 141.11 219.259 134.258C223.195 127.407 225.163 119.608 225.163 110.861C225.163 102.261 223.195 94.5347 219.259 87.6833C215.469 80.6861 210.221 75.2196 203.516 71.2837C196.956 67.3478 189.448 65.3798 180.994 65.3798C172.684 65.3798 165.177 67.3478 158.471 71.2837C151.766 75.2196 146.445 80.6861 142.509 87.6833C138.573 94.5347 136.605 102.261 136.605 110.861C136.605 119.608 138.573 127.407 142.509 134.258C146.445 141.11 151.766 146.576 158.471 150.658C165.177 154.594 172.684 156.562 180.994 156.562Z" fill="#3B4751"/>
<path d="M341.354 210.626C329.547 210.626 319.051 208.075 309.867 202.972C300.829 197.725 293.686 190.509 288.438 181.325C283.336 172.141 280.785 161.645 280.785 149.838C280.785 137.884 283.19 127.388 288.001 118.35C292.957 109.167 299.736 101.951 308.337 96.7029C316.937 91.455 326.85 88.8311 338.075 88.8311C349.153 88.8311 358.774 91.3821 366.938 96.4842C375.247 101.441 381.661 108.365 386.18 117.257C390.699 126.149 392.959 136.281 392.959 147.651C392.959 149.983 392.23 151.879 390.772 153.336C389.314 154.648 387.419 155.304 385.087 155.304H292.156V141.31H386.836L377.434 148.088C377.579 139.633 376.049 132.053 372.842 125.348C369.635 118.642 365.043 113.394 359.066 109.604C353.235 105.814 346.238 103.919 338.075 103.919C329.765 103.919 322.477 105.887 316.208 109.823C309.94 113.758 305.057 119.225 301.558 126.222C298.205 133.074 296.529 140.945 296.529 149.838C296.529 158.73 298.424 166.602 302.214 173.453C306.15 180.305 311.471 185.698 318.176 189.634C324.882 193.57 332.608 195.538 341.354 195.538C346.602 195.538 351.85 194.663 357.098 192.914C362.492 191.019 366.792 188.687 369.999 185.917C371.603 184.605 373.425 183.949 375.466 183.949C377.506 183.803 379.256 184.313 380.714 185.48C382.609 187.229 383.556 189.124 383.556 191.165C383.702 193.206 382.9 194.955 381.151 196.413C376.34 200.494 370.218 203.92 362.783 206.69C355.349 209.314 348.206 210.626 341.354 210.626Z" fill="url(#paint1_linear_1007_1187)"/>
<path d="M219.072 187.561V187.311C219.072 180.507 220.88 174.658 224.488 169.749C228.248 164.834 233.237 161.218 239.463 158.901L239.466 158.9C245.838 156.438 253.088 155.565 261.22 156.291L261.22 156.292L261.228 156.292C263.705 156.438 265.89 156.583 267.783 156.729L267.784 156.729C269.854 156.877 271.582 156.584 272.948 155.826C274.489 155.054 275.541 153.522 276.134 151.296L276.134 151.296L276.136 151.29C276.584 149.423 276.458 147.757 275.734 146.309C275.011 144.864 273.707 143.665 271.853 142.701C268.158 140.779 262.936 139.83 256.213 139.83C247.716 139.83 239.946 141.882 232.909 145.987L232.907 145.988C227.537 149.187 222.926 153.321 219.072 158.387V149.701C219.072 147.03 218.329 144.918 216.812 143.402C215.296 141.885 213.184 141.142 210.513 141.142C207.842 141.142 205.73 141.885 204.213 143.402C202.697 144.918 201.954 147.03 201.954 149.701V252.691C201.954 255.362 202.697 257.474 204.213 258.99C205.73 260.507 207.842 261.25 210.513 261.25C213.184 261.25 215.296 260.507 216.812 258.99C218.329 257.474 219.072 255.362 219.072 252.691V187.561Z" fill="#B6BABE" stroke="#3B4751" stroke-width="0.5"/>
<defs>
<linearGradient id="paint0_linear_1007_1187" x1="12.5831" y1="58.082" x2="127.039" y2="261.369" gradientUnits="userSpaceOnUse">
<stop offset="0.326652" stop-color="#3B4751"/>
<stop offset="0.794987" stop-color="#B6BABE"/>
</linearGradient>
<linearGradient id="paint1_linear_1007_1187" x1="335.451" y1="73.4564" x2="272.244" y2="211.828" gradientUnits="userSpaceOnUse">
<stop offset="0.384652" stop-color="#3B4751"/>
<stop offset="0.878428" stop-color="#B6BABE"/>
</linearGradient>
</defs>
</svg>
