<svg width="397" height="262" viewBox="0 0 397 262" fill="none" xmlns="http://www.w3.org/2000/svg">
<mask id="path-1-outside-1_869_730" maskUnits="userSpaceOnUse" x="0.125" y="39.999" width="114" height="173" fill="black">
<rect fill="white" x="0.125" y="39.999" width="114" height="173"/>
<path fill-rule="evenodd" clip-rule="evenodd" d="M17.7295 154.521V203.517C17.7295 205.996 16.9388 208.037 15.3574 209.641C13.9198 211.099 11.979 211.828 9.53506 211.828C6.94735 211.828 4.86281 211.099 3.28143 209.641C1.84381 208.037 1.125 205.996 1.125 203.517V154.521V100.713V49.5296C1.125 46.9048 1.84381 44.8633 3.28143 43.4051C4.86281 41.801 6.94735 40.999 9.53506 40.999C11.979 40.999 13.9198 41.801 15.3574 43.4051C16.9388 44.8633 17.7295 46.9048 17.7295 49.5296V100.713V108.168C21.5877 103.727 26.1881 100.076 31.5306 97.213C39.15 92.9842 47.6319 90.8698 56.9765 90.8698C67.1835 90.8698 76.3124 93.0572 84.3631 97.4318C88.9228 99.8269 92.9291 102.877 96.382 106.582V99.9262C96.382 97.2829 97.0089 95.2269 98.2627 93.7584C99.6418 92.143 101.46 91.3353 103.717 91.3353C105.848 91.3353 107.541 92.143 108.795 93.7584C110.174 95.2269 110.863 97.2829 110.863 99.9262V203.238C110.863 205.881 110.174 208.01 108.795 209.626C107.541 211.094 105.848 211.828 103.717 211.828C103.466 211.828 103.221 211.819 102.982 211.801C102.746 211.819 102.506 211.828 102.261 211.828C99.8175 211.828 97.8048 211.026 96.2234 209.422C94.642 207.818 93.8514 205.85 93.8514 203.517V146.646C93.8514 137.605 92.1262 130.169 88.6759 124.336C85.3694 118.503 80.769 114.128 74.8748 111.212C69.1243 108.295 62.5832 106.837 55.2513 106.837C48.207 106.837 41.8096 108.223 36.0591 110.993C30.4524 113.764 25.9958 117.555 22.6893 122.367C19.3827 127.179 17.7295 132.648 17.7295 138.772V154.521ZM96.382 64.9017C98.3881 67.2513 100.77 68.4262 103.529 68.4262C106.412 68.4262 108.857 67.2513 110.863 64.9017C112.869 62.552 113.872 59.6884 113.872 56.3108C113.872 52.6394 112.807 49.7758 110.675 47.7198C108.669 45.517 106.35 44.4156 103.717 44.4156C100.958 44.4156 98.5134 45.517 96.382 47.7198C94.3759 49.7758 93.3729 52.6394 93.3729 56.3108C93.3729 59.6884 94.3759 62.552 96.382 64.9017Z"/>
</mask>
<path fill-rule="evenodd" clip-rule="evenodd" d="M17.7295 154.521V203.517C17.7295 205.996 16.9388 208.037 15.3574 209.641C13.9198 211.099 11.979 211.828 9.53506 211.828C6.94735 211.828 4.86281 211.099 3.28143 209.641C1.84381 208.037 1.125 205.996 1.125 203.517V154.521V100.713V49.5296C1.125 46.9048 1.84381 44.8633 3.28143 43.4051C4.86281 41.801 6.94735 40.999 9.53506 40.999C11.979 40.999 13.9198 41.801 15.3574 43.4051C16.9388 44.8633 17.7295 46.9048 17.7295 49.5296V100.713V108.168C21.5877 103.727 26.1881 100.076 31.5306 97.213C39.15 92.9842 47.6319 90.8698 56.9765 90.8698C67.1835 90.8698 76.3124 93.0572 84.3631 97.4318C88.9228 99.8269 92.9291 102.877 96.382 106.582V99.9262C96.382 97.2829 97.0089 95.2269 98.2627 93.7584C99.6418 92.143 101.46 91.3353 103.717 91.3353C105.848 91.3353 107.541 92.143 108.795 93.7584C110.174 95.2269 110.863 97.2829 110.863 99.9262V203.238C110.863 205.881 110.174 208.01 108.795 209.626C107.541 211.094 105.848 211.828 103.717 211.828C103.466 211.828 103.221 211.819 102.982 211.801C102.746 211.819 102.506 211.828 102.261 211.828C99.8175 211.828 97.8048 211.026 96.2234 209.422C94.642 207.818 93.8514 205.85 93.8514 203.517V146.646C93.8514 137.605 92.1262 130.169 88.6759 124.336C85.3694 118.503 80.769 114.128 74.8748 111.212C69.1243 108.295 62.5832 106.837 55.2513 106.837C48.207 106.837 41.8096 108.223 36.0591 110.993C30.4524 113.764 25.9958 117.555 22.6893 122.367C19.3827 127.179 17.7295 132.648 17.7295 138.772V154.521ZM96.382 64.9017C98.3881 67.2513 100.77 68.4262 103.529 68.4262C106.412 68.4262 108.857 67.2513 110.863 64.9017C112.869 62.552 113.872 59.6884 113.872 56.3108C113.872 52.6394 112.807 49.7758 110.675 47.7198C108.669 45.517 106.35 44.4156 103.717 44.4156C100.958 44.4156 98.5134 45.517 96.382 47.7198C94.3759 49.7758 93.3729 52.6394 93.3729 56.3108C93.3729 59.6884 94.3759 62.552 96.382 64.9017Z" fill="url(#paint0_linear_869_730)"/>
<path d="M15.3574 209.641L15.4998 209.782L15.3574 209.641ZM3.28143 209.641L3.13249 209.775L3.13885 209.782L3.14585 209.788L3.28143 209.641ZM3.28143 43.4051L3.139 43.2647L3.139 43.2647L3.28143 43.4051ZM15.3574 43.4051L15.2085 43.5386L15.2148 43.5456L15.2218 43.5521L15.3574 43.4051ZM17.7295 108.168H17.5295V108.703L17.8805 108.299L17.7295 108.168ZM31.5306 97.213L31.6251 97.3894L31.6277 97.3879L31.5306 97.213ZM84.3631 97.4318L84.2676 97.6075L84.2701 97.6088L84.3631 97.4318ZM96.382 106.582L96.2357 106.718L96.582 107.09V106.582H96.382ZM98.2627 93.7584L98.4148 93.8882L98.2627 93.7584ZM108.795 93.7584L108.637 93.881L108.642 93.8884L108.649 93.8953L108.795 93.7584ZM108.795 209.626L108.642 209.496L108.795 209.626ZM102.982 211.801L102.997 211.602L102.981 211.601L102.966 211.602L102.982 211.801ZM96.2234 209.422L96.081 209.563L96.2234 209.422ZM88.6759 124.336L88.5019 124.434L88.5038 124.438L88.6759 124.336ZM74.8748 111.212L74.7843 111.39L74.7861 111.391L74.8748 111.212ZM36.0591 110.993L35.9723 110.813L35.9705 110.814L36.0591 110.993ZM22.6893 122.367L22.5244 122.254L22.6893 122.367ZM96.382 64.9017L96.2299 65.0315L96.382 64.9017ZM110.863 64.9017L111.015 65.0315L110.863 64.9017ZM110.675 47.7198L110.527 47.8548L110.536 47.8638L110.675 47.7198ZM96.382 47.7198L96.5251 47.8595L96.5257 47.8589L96.382 47.7198ZM17.5295 154.521V203.517H17.9295V154.521H17.5295ZM17.5295 203.517C17.5295 205.949 16.7556 207.938 15.215 209.501L15.4998 209.782C17.122 208.136 17.9295 206.042 17.9295 203.517H17.5295ZM15.215 209.501C13.8221 210.914 11.9366 211.628 9.53506 211.628V212.028C12.0214 212.028 14.0175 211.285 15.4998 209.782L15.215 209.501ZM9.53506 211.628C6.98682 211.628 4.95423 210.912 3.41701 209.494L3.14585 209.788C4.77139 211.287 6.90788 212.028 9.53506 212.028V211.628ZM3.43036 209.508C2.03056 207.946 1.325 205.954 1.325 203.517H0.925C0.925 206.037 1.65706 208.128 3.13249 209.775L3.43036 209.508ZM1.325 203.517V154.521H0.925V203.517H1.325ZM1.325 154.521V100.713H0.925V154.521H1.325ZM1.325 100.713V49.5296H0.925V100.713H1.325ZM1.325 49.5296C1.325 46.9418 2.03273 44.9565 3.42385 43.5455L3.139 43.2647C1.65489 44.77 0.925 46.8677 0.925 49.5296H1.325ZM3.42385 43.5455C4.96197 41.9853 6.99223 41.199 9.53506 41.199V40.799C6.90248 40.799 4.76364 41.6167 3.139 43.2647L3.42385 43.5455ZM9.53506 41.199C11.9307 41.199 13.8141 41.9828 15.2085 43.5386L15.5064 43.2716C14.0255 41.6193 12.0274 40.799 9.53506 40.799V41.199ZM15.2218 43.5521C16.7533 44.9643 17.5295 46.9474 17.5295 49.5296H17.9295C17.9295 46.8622 17.1243 44.7623 15.493 43.258L15.2218 43.5521ZM17.5295 49.5296V100.713H17.9295V49.5296H17.5295ZM17.5295 100.713V108.168H17.9295V100.713H17.5295ZM17.8805 108.299C21.7223 103.878 26.3033 100.241 31.6251 97.3893L31.4362 97.0368C26.0729 99.9108 21.4532 103.577 17.5785 108.036L17.8805 108.299ZM31.6277 97.3879C39.2152 93.1768 47.6634 91.0698 56.9765 91.0698V90.6698C47.6005 90.6698 39.0848 92.7917 31.4336 97.0382L31.6277 97.3879ZM56.9765 91.0698C67.1541 91.0698 76.2495 93.2506 84.2676 97.6075L84.4586 97.2561C76.3754 92.8637 67.213 90.6698 56.9765 90.6698V91.0698ZM84.2701 97.6088C88.8102 99.9936 92.7984 103.03 96.2357 106.718L96.5283 106.445C93.0598 102.724 89.0354 99.6601 84.4561 97.2547L84.2701 97.6088ZM96.582 106.582V99.9262H96.182V106.582H96.582ZM96.582 99.9262C96.582 97.3129 97.2017 95.3091 98.4148 93.8882L98.1106 93.6285C96.8161 95.1447 96.182 97.2528 96.182 99.9262H96.582ZM98.4148 93.8882C99.7533 92.3204 101.514 91.5353 103.717 91.5353V91.1353C101.405 91.1353 99.5304 91.9655 98.1106 93.6285L98.4148 93.8882ZM103.717 91.5353C105.789 91.5353 107.422 92.3168 108.637 93.881L108.953 93.6357C107.659 91.9692 105.907 91.1353 103.717 91.1353V91.5353ZM108.649 93.8953C109.983 95.3163 110.663 97.3174 110.663 99.9262H111.063C111.063 97.2483 110.364 95.1375 108.94 93.6215L108.649 93.8953ZM110.663 99.9262V203.238H111.063V99.9262H110.663ZM110.663 203.238C110.663 205.845 109.984 207.925 108.642 209.496L108.947 209.756C110.364 208.096 111.063 205.917 111.063 203.238H110.663ZM108.642 209.496C107.431 210.915 105.796 211.628 103.717 211.628V212.028C105.9 212.028 107.651 211.274 108.947 209.756L108.642 209.496ZM103.717 211.628C103.471 211.628 103.231 211.62 102.997 211.602L102.967 212.001C103.211 212.019 103.461 212.028 103.717 212.028V211.628ZM102.966 211.602C102.736 211.62 102.501 211.628 102.261 211.628V212.028C102.51 212.028 102.756 212.019 102.997 212.001L102.966 211.602ZM102.261 211.628C99.866 211.628 97.9062 210.844 96.3658 209.282L96.081 209.563C97.7034 211.208 99.769 212.028 102.261 212.028V211.628ZM96.3658 209.282C94.8228 207.717 94.0514 205.799 94.0514 203.517H93.6514C93.6514 205.9 94.4613 207.92 96.081 209.563L96.3658 209.282ZM94.0514 203.517V146.646H93.6514V203.517H94.0514ZM94.0514 146.646C94.0514 137.581 92.3217 130.106 88.8481 124.234L88.5038 124.438C91.9307 130.231 93.6514 137.63 93.6514 146.646H94.0514ZM88.8499 124.237C85.5241 118.37 80.8943 113.967 74.9635 111.033L74.7861 111.391C80.6437 114.289 85.2147 118.636 88.5019 124.434L88.8499 124.237ZM74.9653 111.034C69.1831 108.101 62.6103 106.637 55.2513 106.637V107.037C62.5561 107.037 69.0655 108.49 74.7843 111.39L74.9653 111.034ZM55.2513 106.637C48.1801 106.637 41.7526 108.028 35.9723 110.813L36.1459 111.173C41.8666 108.417 48.2339 107.037 55.2513 107.037V106.637ZM35.9705 110.814C30.3354 113.598 25.8517 117.412 22.5244 122.254L22.8541 122.48C26.1399 117.699 30.5694 113.929 36.1477 111.172L35.9705 110.814ZM22.5244 122.254C19.1938 127.101 17.5295 132.609 17.5295 138.772H17.9295C17.9295 132.686 19.5716 127.258 22.8541 122.48L22.5244 122.254ZM17.5295 138.772V154.521H17.9295V138.772H17.5295ZM103.529 68.2262C100.836 68.2262 98.5073 67.083 96.5341 64.7718L96.2299 65.0315C98.2688 67.4197 100.704 68.6262 103.529 68.6262V68.2262ZM110.711 64.7718C108.74 67.0806 106.349 68.2262 103.529 68.2262V68.6262C106.475 68.6262 108.974 67.4221 111.015 65.0315L110.711 64.7718ZM113.672 56.3108C113.672 59.6456 112.683 62.4619 110.711 64.7718L111.015 65.0315C113.055 62.6422 114.072 59.7312 114.072 56.3108H113.672ZM110.536 47.8638C112.62 49.8734 113.672 52.6799 113.672 56.3108H114.072C114.072 52.599 112.994 49.6782 110.814 47.5759L110.536 47.8638ZM103.717 44.6156C106.286 44.6156 108.554 45.6873 110.527 47.8545L110.823 47.5852C108.785 45.3468 106.414 44.2156 103.717 44.2156V44.6156ZM96.5257 47.8589C98.6241 45.6903 101.019 44.6156 103.717 44.6156V44.2156C100.898 44.2156 98.4028 45.3438 96.2383 47.5808L96.5257 47.8589ZM93.5729 56.3108C93.5729 52.6765 94.5649 49.8685 96.5251 47.8595L96.2388 47.5802C94.187 49.6831 93.1729 52.6024 93.1729 56.3108H93.5729ZM96.5341 64.7718C94.5619 62.4619 93.5729 59.6456 93.5729 56.3108H93.1729C93.1729 59.7312 94.1899 62.6422 96.2299 65.0315L96.5341 64.7718Z" fill="#4DA9E9" mask="url(#path-1-outside-1_869_730)"/>
<path d="M181.494 171.868C169.977 171.868 159.627 169.244 150.444 163.996C141.26 158.603 133.971 151.314 128.577 142.13C123.33 132.946 120.706 122.523 120.706 110.861C120.706 99.3453 123.257 88.9953 128.359 79.8115C133.607 70.6277 140.677 63.4119 149.569 58.164C158.461 52.7703 168.52 50.0735 179.744 50.0735C189.511 50.0735 198.33 52.1872 206.202 56.4147C214.074 60.4964 220.415 65.9629 225.226 72.8143V8.5278C225.226 5.90386 226.028 3.86302 227.631 2.40527C229.235 0.801758 231.275 0 233.754 0C236.232 0 238.273 0.801758 239.876 2.40527C241.48 3.86302 242.281 5.90386 242.281 8.5278V111.736C241.99 123.107 239.147 133.384 233.754 142.567C228.506 151.605 221.29 158.748 212.106 163.996C203.068 169.244 192.864 171.868 181.494 171.868ZM181.494 156.562C189.948 156.562 197.456 154.594 204.016 150.658C210.721 146.576 215.969 141.11 219.759 134.258C223.695 127.407 225.663 119.608 225.663 110.861C225.663 102.261 223.695 94.5347 219.759 87.6833C215.969 80.6861 210.721 75.2196 204.016 71.2837C197.456 67.3478 189.948 65.3798 181.494 65.3798C173.184 65.3798 165.677 67.3478 158.971 71.2837C152.266 75.2196 146.945 80.6861 143.009 87.6833C139.073 94.5347 137.105 102.261 137.105 110.861C137.105 119.608 139.073 127.407 143.009 134.258C146.945 141.11 152.266 146.576 158.971 150.658C165.677 154.594 173.184 156.562 181.494 156.562Z" fill="#104B7E"/>
<path d="M341.854 210.626C330.047 210.626 319.551 208.075 310.367 202.972C301.329 197.725 294.186 190.509 288.938 181.325C283.836 172.141 281.285 161.645 281.285 149.838C281.285 137.884 283.69 127.388 288.501 118.35C293.457 109.167 300.236 101.951 308.837 96.7029C317.437 91.455 327.35 88.8311 338.575 88.8311C349.653 88.8311 359.274 91.3821 367.438 96.4842C375.747 101.441 382.161 108.365 386.68 117.257C391.199 126.149 393.459 136.281 393.459 147.651C393.459 149.983 392.73 151.879 391.272 153.336C389.814 154.648 387.919 155.304 385.587 155.304H292.656V141.31H387.336L377.934 148.088C378.079 139.633 376.549 132.053 373.342 125.348C370.135 118.642 365.543 113.394 359.566 109.604C353.735 105.814 346.738 103.919 338.575 103.919C330.265 103.919 322.977 105.887 316.708 109.823C310.44 113.758 305.557 119.225 302.058 126.222C298.705 133.074 297.029 140.945 297.029 149.838C297.029 158.73 298.924 166.602 302.714 173.453C306.65 180.305 311.971 185.698 318.676 189.634C325.382 193.57 333.108 195.538 341.854 195.538C347.102 195.538 352.35 194.663 357.598 192.914C362.992 191.019 367.292 188.687 370.499 185.917C372.103 184.605 373.925 183.949 375.966 183.949C378.006 183.803 379.756 184.313 381.214 185.48C383.109 187.229 384.056 189.124 384.056 191.165C384.202 193.206 383.4 194.955 381.651 196.413C376.84 200.494 370.718 203.92 363.283 206.69C355.849 209.314 348.706 210.626 341.854 210.626Z" fill="url(#paint1_linear_869_730)"/>
<path d="M219.572 187.561V187.311C219.572 180.507 221.38 174.658 224.988 169.749C228.748 164.834 233.737 161.218 239.963 158.901L239.966 158.9C246.338 156.438 253.588 155.565 261.72 156.291L261.72 156.292L261.728 156.292C264.205 156.438 266.39 156.583 268.283 156.729L268.284 156.729C270.354 156.877 272.082 156.584 273.448 155.826C274.989 155.054 276.041 153.522 276.634 151.296L276.634 151.296L276.636 151.29C277.084 149.423 276.958 147.757 276.234 146.309C275.511 144.864 274.207 143.665 272.353 142.701C268.658 140.779 263.436 139.83 256.713 139.83C248.216 139.83 240.446 141.882 233.409 145.987L233.407 145.988C228.037 149.187 223.426 153.321 219.572 158.387V149.701C219.572 147.03 218.829 144.918 217.312 143.402C215.796 141.885 213.684 141.142 211.013 141.142C208.342 141.142 206.23 141.885 204.713 143.402C203.197 144.918 202.454 147.03 202.454 149.701V252.691C202.454 255.362 203.197 257.474 204.713 258.99C206.23 260.507 208.342 261.25 211.013 261.25C213.684 261.25 215.796 260.507 217.312 258.99C218.829 257.474 219.572 255.362 219.572 252.691V187.561Z" fill="#8AD0FC" stroke="#4DA9E9" stroke-width="0.5"/>
<defs>
<linearGradient id="paint0_linear_869_730" x1="13.0831" y1="58.082" x2="127.539" y2="261.369" gradientUnits="userSpaceOnUse">
<stop offset="0.326652" stop-color="#104B7E"/>
<stop offset="0.794987" stop-color="#8AD0FC"/>
</linearGradient>
<linearGradient id="paint1_linear_869_730" x1="335.951" y1="73.4564" x2="272.744" y2="211.828" gradientUnits="userSpaceOnUse">
<stop offset="0.384652" stop-color="#104B7E"/>
<stop offset="0.878428" stop-color="#8AD0FC"/>
</linearGradient>
</defs>
</svg>
