<svg width="210" height="211" viewBox="0 0 210 211" fill="none" xmlns="http://www.w3.org/2000/svg">
<mask id="mask0_82_36" style="mask-type:alpha" maskUnits="userSpaceOnUse" x="0" y="0" width="210" height="211">
<rect y="0.232422" width="210" height="210" fill="#D9D9D9"/>
</mask>
<g mask="url(#mask0_82_36)">
<path d="M76.9801 193.944C69.926 193.944 63.6983 191.846 58.2969 187.651C52.8955 183.455 49.1964 178.003 47.1995 171.295C45.0009 175.535 42.1123 178.738 38.5337 180.903C34.9552 183.068 30.8383 184.151 26.1829 184.151C19.3961 184.151 13.7226 181.835 9.16258 177.203C4.60237 172.572 2.32227 166.917 2.32227 160.24C2.32227 153.038 4.69767 147.219 9.44848 142.782C14.1993 138.345 20.1701 136.357 27.3608 136.817C24.4552 133.899 22.1976 130.437 20.5879 126.431C18.978 122.425 18.1731 118.337 18.1731 114.168C18.1731 108.609 19.5641 103.453 22.3462 98.6993C25.1283 93.946 29.2564 90.1223 34.7307 87.2281C35.3502 89.0622 36.2246 91.0389 37.3538 93.1582C38.4828 95.2773 39.5379 97.1595 40.5191 98.8048C37.3444 100.667 34.969 103.029 33.3929 105.89C31.8167 108.752 31.0286 111.713 31.0286 114.774C31.0286 123.546 34.4865 129.043 41.4024 131.264C48.3184 133.485 55.1081 135.28 61.7715 136.649L64.1609 140.973C62.7587 145.18 61.4659 148.997 60.2823 152.424C59.0988 155.851 58.5071 159.096 58.5071 162.158C58.5071 167.195 60.3178 171.609 63.9391 175.401C67.5604 179.193 71.9365 181.088 77.0672 181.088C82.8433 181.088 87.6117 178.796 91.3723 174.21C95.1328 169.624 98.2208 164.155 100.636 157.803C103.052 151.452 104.944 144.914 106.313 138.188C107.681 131.463 108.758 126.093 109.543 122.076L122.045 125.476C120.699 131.556 119.143 138.57 117.376 146.518C115.609 154.465 113.119 161.953 109.905 168.981C106.691 176.009 102.454 181.927 97.1944 186.734C91.9344 191.541 85.1964 193.944 76.9801 193.944ZM26.208 171.379C29.4239 171.379 32.0804 170.315 34.1773 168.185C36.2741 166.055 37.3225 163.452 37.3225 160.375C37.3225 157.291 36.2577 154.65 34.1281 152.45C31.9983 150.251 29.3948 149.151 26.3174 149.151C23.0847 149.151 20.406 150.251 18.2812 152.451C16.1564 154.652 15.094 157.294 15.094 160.379C15.094 163.519 16.1564 166.137 18.2812 168.234C20.406 170.331 23.0482 171.379 26.208 171.379ZM84.8074 128.37C80.769 124.713 76.4838 120.823 71.9517 116.7C67.4196 112.578 63.2256 108.245 59.3696 103.702C55.5137 99.1584 52.3586 94.3459 49.9045 89.2642C47.4505 84.1825 46.2234 78.8371 46.2234 73.2281C46.2234 64.3608 49.2229 56.9053 55.2219 50.8613C61.2209 44.8174 68.626 41.7955 77.4373 41.7955C78.8635 41.7955 80.2966 41.86 81.7366 41.989C83.1766 42.1181 84.4526 42.3845 85.5647 42.7884C83.927 40.4431 82.7941 38.2535 82.1658 36.2197C81.5376 34.1859 81.2234 32.1351 81.2234 30.0672C81.2234 23.373 83.4934 17.7003 88.0333 13.0491C92.5733 8.39787 98.2255 6.07227 104.99 6.07227C111.754 6.07227 117.446 8.39787 122.066 13.0491C126.685 17.7003 128.995 23.373 128.995 30.0672C128.995 32.1818 128.667 34.222 128.011 36.188C127.354 38.154 126.235 40.3541 124.654 42.7884C125.641 42.5304 126.844 42.3004 128.263 42.0984C129.682 41.8964 131.115 41.7955 132.562 41.7955C140.468 41.7955 147.24 44.2774 152.878 49.2413C158.517 54.2053 161.852 60.4564 162.884 67.9947C160.939 67.7592 158.789 67.6639 156.436 67.7088C154.083 67.7536 151.992 67.8938 150.163 68.1295C149.041 64.1246 146.93 60.8629 143.828 58.3445C140.726 55.8262 136.983 54.567 132.599 54.567C127.123 54.567 122.615 56.3113 119.075 59.8001C115.536 63.2889 111.624 67.5405 107.339 72.555H102.442C98.213 67.4508 94.3288 63.1767 90.7896 59.7327C87.2502 56.2889 82.7994 54.567 77.4373 54.567C71.9614 54.567 67.5187 56.3082 64.1091 59.7907C60.6996 63.2731 58.9949 67.7522 58.9949 73.2281C58.9949 76.9815 60.156 80.8955 62.4781 84.9699C64.8002 89.0444 67.7238 93.1092 71.2491 97.1644C74.7745 101.22 78.5493 105.143 82.5736 108.935C86.598 112.727 90.377 116.17 93.9107 119.267L84.8074 128.37ZM105 41.0723C108.139 41.0723 110.795 40.0075 112.966 37.8779C115.138 35.7483 116.223 33.1447 116.223 30.0672C116.223 26.9278 115.137 24.2724 112.965 22.101C110.793 19.9293 108.136 18.8435 104.996 18.8435C101.855 18.8435 99.2369 19.9297 97.1401 22.102C95.0433 24.2742 93.9949 26.9306 93.9949 30.0711C93.9949 33.2116 95.0597 35.8303 97.1893 37.9271C99.3189 40.0239 101.922 41.0723 105 41.0723ZM132.663 194.163C129.725 194.163 126.82 193.738 123.948 192.887C121.077 192.037 118.294 190.634 115.601 188.677C116.573 187.138 117.696 185.293 118.971 183.143C120.246 180.993 121.243 178.979 121.961 177.101C123.591 178.587 125.364 179.673 127.281 180.36C129.199 181.048 131.138 181.391 133.101 181.391C138.16 181.391 142.498 179.462 146.116 175.602C149.734 171.743 151.543 167.262 151.543 162.158C151.543 159.023 150.915 155.751 149.658 152.344C148.402 148.936 147.146 145.174 145.889 141.057L148.363 136.817C155.082 135.684 161.922 133.967 168.883 131.667C175.844 129.366 179.324 123.769 179.324 114.876C179.324 108.357 176.947 103.55 172.191 100.454C167.436 97.3575 162.219 95.8094 156.541 95.8094C149.371 95.8094 141.485 97.1107 132.881 99.7132C124.277 102.316 116.526 104.728 109.627 106.949L106.228 94.6654C114.069 92.119 122.307 89.5164 130.942 86.8577C139.577 84.1991 147.868 82.8697 155.817 82.8697C165.167 82.8697 173.551 85.6265 180.969 91.1402C188.387 96.6537 192.096 104.548 192.096 114.824C192.096 118.906 191.282 122.863 189.656 126.694C188.029 130.526 185.735 133.945 182.774 136.951C189.874 136.548 195.859 138.609 200.728 143.135C205.596 147.662 208.031 153.408 208.031 160.374C208.031 167.042 205.731 172.709 201.13 177.373C196.53 182.037 190.877 184.37 184.17 184.37C179.604 184.37 175.451 183.251 171.71 181.013C167.969 178.775 165.116 175.507 163.153 171.211C161.011 178.065 157.209 183.604 151.748 187.827C146.287 192.051 139.925 194.163 132.663 194.163ZM184.305 171.598C187.413 171.598 190.015 170.519 192.113 168.362C194.21 166.204 195.259 163.615 195.259 160.593C195.259 157.519 194.174 154.844 192.005 152.567C189.835 150.289 187.178 149.151 184.035 149.151C180.892 149.151 178.273 150.236 176.176 152.405C174.079 154.575 173.031 157.231 173.031 160.374C173.031 163.448 174.133 166.087 176.337 168.292C178.541 170.496 181.197 171.598 184.305 171.598Z" fill="#2B93E1"/>
</g>
</svg>
