<svg width="1342" height="330" viewBox="0 0 1342 330" fill="none" xmlns="http://www.w3.org/2000/svg">
<path d="M413.865 1.94128C413.865 1.94128 987.651 0.924228 1001.51 1.94128C1015.37 2.95833 1036.3 15.639 1036.72 34.4545C1037.16 53.678 1028.24 63.776 1001.51 68.4978C974.777 73.2197 762.212 68.4978 762.212 68.4978C762.212 68.4978 735.179 76.0177 736.464 102.541C737.749 129.064 762.212 132.759 762.212 132.759C762.212 132.759 941.916 139.513 1136.54 139.513C1331.16 139.513 1341 158.256 1341 182.736C1341 207.216 1248.23 199.184 1140.7 199.698C1033.17 200.213 606.97 203.141 606.97 203.141C606.97 203.141 573.271 199.316 573.271 230.681C573.271 262.047 606.97 262.047 606.97 262.047H1036.72C1036.72 262.047 1086.96 266.528 1088.6 289.588C1090.3 313.61 1036.72 322.101 1036.72 322.101L413.865 328.986H161.313C161.313 328.986 126.329 323.118 129.129 299.915C131.929 276.713 161.313 279.26 161.313 279.26H346.467C346.467 279.26 281.192 279.26 286.872 250.189C283.464 221.501 337.38 221.501 337.38 221.501H421.816C421.816 221.501 382.695 220.886 380.166 203.141C377.672 185.643 413.865 173.305 413.865 173.305L45.6793 178.66C45.6793 178.66 1.00009 178.66 1 149.59C0.999937 111.721 52.6441 111.721 52.6441 111.721L468.388 102.541C468.388 102.541 414.135 102.243 413.865 78.8255C413.593 55.2879 468.388 54.345 468.388 54.345H113.605C113.605 54.345 68.1683 55.1097 68.1683 26.8043C68.1683 -1.50104 113.605 1.94128 113.605 1.94128H413.865Z" fill="#EAF4FD" stroke="#EAF4FD"/>
</svg>
